<mxfile host="Electron" agent="Mozilla/5.0 (X11; Linux x86_64) AppleWebKit/537.36 (KHTML, like Gecko) draw.io/24.7.17 Chrome/128.0.6613.36 Electron/32.0.1 Safari/537.36" version="24.7.17">
  <diagram name="PÃ¡gina-1" id="_xyPnGrIjj6IjGaiVuWp">
    <mxGraphModel dx="1114" dy="663" grid="1" gridSize="10" guides="1" tooltips="1" connect="1" arrows="1" fold="1" page="1" pageScale="1" pageWidth="827" pageHeight="1169" math="0" shadow="0">
      <root>
        <mxCell id="0" />
        <mxCell id="1" parent="0" />
        <mxCell id="v0vhs0RgaAI3ZfT-_OTn-8" style="edgeStyle=orthogonalEdgeStyle;rounded=0;orthogonalLoop=1;jettySize=auto;html=1;" edge="1" parent="1" source="v0vhs0RgaAI3ZfT-_OTn-1">
          <mxGeometry relative="1" as="geometry">
            <mxPoint x="290" y="340" as="targetPoint" />
          </mxGeometry>
        </mxCell>
        <mxCell id="v0vhs0RgaAI3ZfT-_OTn-1" value="DENSE&lt;div&gt;(n_neurons)&lt;/div&gt;&lt;div&gt;x4&lt;/div&gt;" style="rounded=1;whiteSpace=wrap;html=1;" vertex="1" parent="1">
          <mxGeometry x="230" y="200" width="120" height="70" as="geometry" />
        </mxCell>
        <mxCell id="v0vhs0RgaAI3ZfT-_OTn-2" value="DENSE&lt;div&gt;(input_size + horizon)&lt;/div&gt;" style="rounded=1;whiteSpace=wrap;html=1;" vertex="1" parent="1">
          <mxGeometry x="230" y="340" width="130" height="70" as="geometry" />
        </mxCell>
        <mxCell id="v0vhs0RgaAI3ZfT-_OTn-3" value="&lt;font color=&quot;#cc0000&quot; style=&quot;font-size: 14px;&quot;&gt;&lt;b&gt;Backcast&lt;/b&gt;&lt;/font&gt;&lt;div&gt;&lt;font color=&quot;#cc0000&quot; style=&quot;font-size: 14px;&quot;&gt;&lt;b&gt;(input_size)&lt;/b&gt;&lt;/font&gt;&lt;/div&gt;" style="text;html=1;align=center;verticalAlign=middle;whiteSpace=wrap;rounded=0;" vertex="1" parent="1">
          <mxGeometry x="150" y="500" width="60" height="30" as="geometry" />
        </mxCell>
        <mxCell id="v0vhs0RgaAI3ZfT-_OTn-4" value="&lt;font color=&quot;#cc6600&quot; style=&quot;font-size: 14px;&quot;&gt;&lt;b&gt;Forecast&lt;/b&gt;&lt;/font&gt;&lt;div&gt;&lt;font color=&quot;#cc6600&quot; style=&quot;font-size: 14px;&quot;&gt;&lt;b&gt;(horizon)&lt;/b&gt;&lt;/font&gt;&lt;/div&gt;" style="text;html=1;align=center;verticalAlign=middle;whiteSpace=wrap;rounded=0;" vertex="1" parent="1">
          <mxGeometry x="384" y="500" width="60" height="30" as="geometry" />
        </mxCell>
        <mxCell id="v0vhs0RgaAI3ZfT-_OTn-6" value="&lt;span style=&quot;font-size: 14px;&quot;&gt;&lt;b&gt;&lt;font color=&quot;#0000cc&quot;&gt;INPUT&lt;/font&gt;&lt;/b&gt;&lt;/span&gt;" style="text;html=1;align=center;verticalAlign=middle;whiteSpace=wrap;rounded=0;" vertex="1" parent="1">
          <mxGeometry x="260" y="100" width="60" height="30" as="geometry" />
        </mxCell>
        <mxCell id="v0vhs0RgaAI3ZfT-_OTn-9" value="" style="endArrow=classic;html=1;rounded=0;exitX=0.75;exitY=1;exitDx=0;exitDy=0;" edge="1" parent="1" source="v0vhs0RgaAI3ZfT-_OTn-2">
          <mxGeometry width="50" height="50" relative="1" as="geometry">
            <mxPoint x="390" y="470" as="sourcePoint" />
            <mxPoint x="400" y="490" as="targetPoint" />
          </mxGeometry>
        </mxCell>
        <mxCell id="v0vhs0RgaAI3ZfT-_OTn-10" value="" style="endArrow=classic;html=1;rounded=0;exitX=0.2;exitY=1.043;exitDx=0;exitDy=0;exitPerimeter=0;" edge="1" parent="1" source="v0vhs0RgaAI3ZfT-_OTn-2">
          <mxGeometry width="50" height="50" relative="1" as="geometry">
            <mxPoint x="390" y="470" as="sourcePoint" />
            <mxPoint x="190" y="490" as="targetPoint" />
          </mxGeometry>
        </mxCell>
        <mxCell id="v0vhs0RgaAI3ZfT-_OTn-11" value="" style="endArrow=classic;html=1;rounded=0;entryX=0.5;entryY=0;entryDx=0;entryDy=0;" edge="1" parent="1" target="v0vhs0RgaAI3ZfT-_OTn-1">
          <mxGeometry width="50" height="50" relative="1" as="geometry">
            <mxPoint x="290" y="140" as="sourcePoint" />
            <mxPoint x="340" y="120" as="targetPoint" />
          </mxGeometry>
        </mxCell>
      </root>
    </mxGraphModel>
  </diagram>
</mxfile>
